<svg xmlns="http://www.w3.org/2000/svg" width="703" height="703" viewBox="0 0 703 703" version="1.1"><path d="M 336.440 91.021 C 313.576 92.383, 289.051 97.155, 267.500 104.436 C 218.621 120.950, 174.076 153.830, 141.726 197.274 C 100.180 253.069, 83.185 329.194, 97.137 397 C 108.076 450.160, 130.271 491.417, 168.441 529.541 C 190.918 551.992, 211.671 566.943, 238.500 580.013 C 262.520 591.715, 282.151 597.999, 309.500 602.740 C 322.869 605.058, 327.273 605.349, 350 605.420 C 376.762 605.504, 383.458 604.889, 405.404 600.333 C 456.297 589.766, 509.856 558.588, 543.721 519.816 C 573.987 485.164, 593.018 448.496, 602.973 405.649 C 617.664 342.417, 606.939 272.924, 574.030 218.112 C 543.835 167.820, 498.649 129.560, 444.053 108.058 C 429.380 102.280, 405.943 95.929, 390.500 93.546 C 380.490 92.002, 355.704 89.873, 351 90.154 C 349.625 90.236, 343.073 90.626, 336.440 91.021 M 339 99.623 C 283.279 103.416, 233.215 123.076, 192 157.352 C 167.949 177.353, 145.963 204.554, 130.596 233.319 C 105.743 279.840, 97.160 337.535, 107.658 387.500 C 123.078 460.894, 176.379 527.041, 247.500 561.049 C 319.565 595.507, 402.737 592.525, 472.500 552.980 C 528.561 521.202, 570.700 470.093, 589.319 411.294 C 604.079 364.683, 603.090 315.621, 586.392 266 C 578.869 243.644, 562.537 214.411, 545.751 193.256 C 522.132 163.488, 487.157 136.546, 451.806 120.888 C 429.663 111.080, 403.653 103.919, 379.937 101.100 C 370.036 99.923, 346.870 99.088, 339 99.623 M 324 113.529 C 240.840 124.042, 172.647 172.998, 135.990 248.500 C 123.255 274.730, 116.479 301.980, 114.481 335 C 113.702 347.871, 115.289 366.449, 118.563 382.781 C 136.416 471.856, 210.063 547.681, 298.500 568.040 C 329.039 575.070, 366.472 575.817, 396.971 570.005 C 464.919 557.058, 525.392 512.195, 560.913 448.382 C 572.816 426.997, 581.387 402.166, 586.128 375.333 C 589.071 358.675, 589.311 331.409, 586.671 313.676 C 584.444 298.718, 579.236 278.272, 574.527 266 C 555.389 216.126, 516.010 170.077, 470.316 144.138 C 443.936 129.164, 414.658 118.935, 385.500 114.506 C 370.169 112.178, 338.651 111.677, 324 113.529 M 341 122.120 C 306.695 123.586, 277.645 131.053, 247.698 146.104 C 207.678 166.216, 173.624 198.715, 150.357 239 C 136.123 263.646, 129.131 284.314, 124.548 315.291 C 122.902 326.415, 122.274 353.598, 123.458 362.500 C 129.261 406.159, 142.240 438.383, 167.761 472.500 C 199.974 515.562, 246.002 546.883, 295.500 559.424 C 316.022 564.624, 323.632 565.437, 352 565.457 C 375.409 565.474, 379.958 565.208, 391 563.177 C 414.531 558.850, 431.197 553.387, 451.926 543.207 C 497.756 520.701, 536.381 481.855, 559.021 435.500 C 583.678 385.017, 587.290 330.652, 569.528 277.351 C 550.956 221.616, 506.875 171.498, 453.500 145.431 C 416.865 127.540, 382.208 120.358, 341 122.120 M 335.500 141.543 C 327.800 142.247, 320.488 142.862, 319.250 142.911 C 317.221 142.991, 317 143.503, 317 148.129 L 317 153.258 323.851 152.583 L 330.702 151.908 331.344 158.704 C 331.697 162.442, 331.989 168.025, 331.993 171.110 C 331.997 174.196, 332.286 178.809, 332.636 181.360 L 333.272 186 339.257 186 L 345.243 186 344.520 168.645 L 343.797 151.291 347.024 150.645 C 348.798 150.290, 351.769 150, 353.625 150 C 356.800 150, 357 149.798, 357 146.582 C 357 139.198, 358.171 139.472, 335.500 141.543 M 377.728 144.327 C 361.234 149.458, 357.274 173.942, 371.296 184.100 C 381.794 191.704, 394.826 191.766, 403.143 184.252 C 410.894 177.249, 413.924 166.327, 410.560 157.519 C 406.347 146.486, 390.831 140.251, 377.728 144.327 M 287 150.154 C 280.125 152.380, 274.196 154.494, 273.825 154.851 C 273.454 155.208, 275.816 163.375, 279.076 173 C 282.335 182.625, 285.498 191.999, 286.105 193.832 C 287.389 197.706, 286.380 197.789, 303.872 192.375 L 315.244 188.855 314.706 184.845 C 314.410 182.639, 313.901 180.567, 313.574 180.241 C 313.247 179.914, 309.146 180.796, 304.460 182.201 C 295.132 184.998, 295.108 184.991, 293.666 178.938 C 293.088 176.511, 293.430 176.255, 300.123 174.100 L 307.189 171.824 306.517 168.162 C 306.147 166.148, 305.539 164.182, 305.165 163.793 C 304.791 163.404, 301.417 164.022, 297.667 165.167 C 290.227 167.438, 289.052 167.088, 288.710 162.497 C 288.509 159.789, 288.834 159.574, 296.733 157.192 C 304.678 154.797, 304.944 154.619, 304.344 152.105 C 303.420 148.228, 302.080 145.993, 300.715 146.053 C 300.047 146.082, 293.875 147.927, 287 150.154 M 381.743 154.763 C 378.001 157.082, 375.590 163.668, 376.270 169.706 C 377.623 181.706, 392.024 183.769, 397.057 172.684 C 399.237 167.880, 399.533 162.264, 397.805 158.472 C 395.449 153.301, 387.180 151.391, 381.743 154.763 M 428.591 159.750 C 427.037 162.912, 422.861 171.978, 419.311 179.897 C 414.253 191.179, 413.142 194.485, 414.178 195.182 C 414.905 195.671, 419.761 198.172, 424.969 200.741 C 433.344 204.872, 435.201 205.412, 441.030 205.412 C 446.360 205.412, 448.489 204.903, 452.154 202.755 C 462.017 196.975, 466.598 185.155, 462.644 175.690 C 460.483 170.518, 451.409 163.113, 441.384 158.340 C 436.371 155.953, 432.077 154, 431.843 154 C 431.608 154, 430.145 156.588, 428.591 159.750 M 253.741 163.374 C 251.673 164.645, 249.709 165.958, 249.376 166.291 C 249.043 166.624, 250.421 169.849, 252.439 173.457 C 254.457 177.065, 255.849 180.436, 255.533 180.947 C 254.834 182.077, 244.609 188.003, 243.378 187.992 C 242.895 187.987, 240.948 185.062, 239.052 181.492 C 237.155 177.921, 235.009 175, 234.282 175 C 232.730 175, 225 179.726, 225 180.675 C 225 181.032, 226.187 183.389, 227.637 185.912 C 232.478 194.333, 244.246 214.471, 245.687 216.798 L 247.109 219.096 250.804 216.894 C 257.390 212.970, 257.364 213.097, 252.986 205.979 C 250.794 202.415, 249.001 198.971, 249.001 198.323 C 249 197.126, 258.871 191, 260.801 191 C 261.383 191, 263.561 194.150, 265.640 198 C 267.719 201.850, 269.975 205, 270.653 205 C 271.606 205, 277.614 201.988, 279.842 200.394 C 280.031 200.259, 276.805 193.928, 272.674 186.324 C 268.543 178.721, 263.907 169.912, 262.373 166.750 C 260.839 163.588, 259.115 161.014, 258.542 161.031 C 257.969 161.048, 255.808 162.103, 253.741 163.374 M 433.508 178.983 C 430.479 185.024, 428 190.341, 428 190.798 C 428 192.346, 435.044 195, 439.152 195 C 442.547 195, 443.876 194.359, 447.035 191.201 C 454.063 184.172, 453.008 175.433, 444.532 170.466 C 442.218 169.110, 440.030 168, 439.670 168 C 439.311 168, 436.538 172.943, 433.508 178.983 M 479.315 189.668 C 476.117 193.336, 469.563 200.773, 464.750 206.194 C 459.938 211.616, 456 216.416, 456 216.861 C 456 218.333, 471.939 231.450, 477.130 234.250 C 483.609 237.744, 489.642 237.859, 496.500 234.617 C 510.845 227.835, 514.313 212.855, 504.595 199.654 C 502.628 196.983, 486.700 183, 485.624 183 C 485.352 183, 482.513 186.001, 479.315 189.668 M 204.897 195.004 C 192.540 205.853, 185 212.960, 185 213.759 C 185 214.114, 186.417 215.866, 188.148 217.653 L 191.297 220.901 196.528 216.432 L 201.760 211.962 212.630 224.925 C 218.609 232.054, 223.950 237.901, 224.500 237.917 C 225.829 237.955, 233 231.250, 233 229.968 C 233 229.414, 229.731 225.258, 225.735 220.731 C 221.740 216.204, 216.755 210.475, 214.657 208 L 210.843 203.500 215.864 199 L 220.885 194.500 217.589 190.627 L 214.293 186.754 204.897 195.004 M 480.694 207.132 C 475.915 212.284, 472.004 217.072, 472.003 217.772 C 471.999 219.534, 480.872 225, 483.736 225 C 487.488 225, 493.912 221.192, 496.035 217.710 C 497.112 215.944, 497.994 212.786, 497.996 210.692 C 497.999 207.573, 497.220 206.058, 493.691 202.323 L 489.383 197.763 480.694 207.132 M 331 205.122 C 312.723 207.224, 292.533 213.850, 275.891 223.207 C 263.329 230.271, 243 245.266, 243 247.469 C 243 247.761, 246.560 248, 250.910 248 C 258.570 248, 258.974 247.879, 263.666 244.169 C 281.646 229.958, 304.837 220.065, 328.500 216.513 C 340.088 214.773, 360.932 214.546, 372.766 216.030 C 396.579 219.016, 423.768 229.735, 441.591 243.164 C 446.446 246.823, 447.024 246.998, 454.091 246.960 L 461.500 246.921 456.610 242.421 C 451.103 237.354, 435.784 227.022, 426 221.777 C 400.659 208.191, 362.493 201.500, 331 205.122 M 175.863 247.234 C 142.009 305.200, 139.265 368.793, 168.106 426.977 C 179.524 450.011, 191.600 466.547, 210.142 484.539 L 220.284 494.381 222.647 491.441 L 225.010 488.500 218.634 482.778 C 209.158 474.274, 196.028 458.762, 187.415 445.894 C 156.403 399.562, 148.015 345.331, 163.766 293 C 168.291 277.965, 175.611 261.881, 183.766 249.052 L 187.229 243.604 185.004 241.802 C 183.780 240.811, 182.173 240, 181.433 240 C 180.694 240, 178.187 243.255, 175.863 247.234 M 518.139 242.034 L 515.777 244.001 519.890 250.560 C 532.286 270.331, 543.154 302.081, 546.054 327 C 547.498 339.404, 546.787 363.683, 544.634 375.518 C 537.289 415.887, 519.643 450.121, 491.686 478.242 C 486.359 483.601, 482 488.368, 482 488.837 C 482 489.306, 482.863 490.471, 483.917 491.425 C 486.565 493.821, 487.932 492.915, 498.748 481.603 C 522.847 456.394, 537.994 429.733, 547.665 395.500 C 558.723 356.355, 556.994 318.872, 542.312 279.500 C 537.129 265.602, 523.638 239.966, 521.542 240.033 C 520.969 240.052, 519.437 240.952, 518.139 242.034 M 205.160 263.307 C 204.014 264.688, 203.560 292.689, 204.638 295.500 C 205.123 296.764, 208.345 297, 225.107 297 L 245 297 245 353.346 C 245 384.337, 245.292 413.812, 245.650 418.846 L 246.299 428 263.650 428 L 281 428 281 362 L 281 296 301.481 296 C 321.889 296, 321.964 295.992, 322.518 293.750 C 322.824 292.512, 322.945 284.975, 322.787 277 L 322.500 262.500 264.379 262.242 C 217.155 262.032, 206.052 262.232, 205.160 263.307 M 340.244 344.750 L 340.500 427.500 353.742 427.779 L 366.985 428.058 367.242 366.279 C 367.404 327.536, 367.829 305.992, 368.384 308.500 C 368.870 310.700, 372.378 319.700, 376.179 328.500 C 379.981 337.300, 387.403 354.850, 392.674 367.500 C 397.944 380.150, 402.704 391.063, 403.250 391.750 C 403.919 392.590, 407.315 393, 413.609 393 L 422.973 393 424.602 389.250 C 425.498 387.188, 430.054 376.275, 434.725 365 C 439.397 353.725, 445.270 339.550, 447.777 333.500 C 450.284 327.450, 453.812 318.450, 455.617 313.500 L 458.900 304.500 458.950 366.250 L 459 428 476.918 428 C 486.773 428, 495.490 428.251, 496.289 428.558 C 497.088 428.864, 498.492 428.365, 499.408 427.449 C 500.758 426.100, 501.020 424.138, 500.787 417.141 L 500.500 408.500 495.750 408.195 C 493.137 408.028, 490.895 407.803, 490.766 407.695 C 490.638 407.588, 490.300 374.875, 490.016 335 L 489.500 262.500 464.500 262.500 L 439.500 262.500 434.818 276 C 432.244 283.425, 426.400 300.392, 421.833 313.705 C 417.266 327.018, 413.239 337.368, 412.883 336.705 C 412.528 336.042, 406.575 321.063, 399.655 303.418 C 392.735 285.773, 386.173 269.236, 385.072 266.668 L 383.071 262 361.530 262 L 339.988 262 340.244 344.750 M 195.319 329.700 C 194.868 332.340, 194.531 342.150, 194.568 351.500 C 194.641 369.644, 196.043 378.288, 201.619 394.990 C 213.170 429.590, 248.138 463.397, 288.995 479.465 C 325.858 493.962, 367.407 495.799, 403.500 484.528 C 421.420 478.932, 440.123 469.019, 456 456.701 C 463.440 450.929, 472 442.950, 472 441.788 C 472 441.354, 468.836 441, 464.970 441 L 457.940 441 451.308 446.626 C 405.091 485.833, 338.127 492.406, 279.500 463.488 C 245.825 446.879, 221.485 420.538, 211.095 389.461 C 206.096 374.509, 204.689 363.830, 205.371 346 C 205.697 337.475, 206.085 329.375, 206.232 328 C 206.484 325.653, 206.183 325.482, 201.319 325.200 L 196.138 324.900 195.319 329.700 M 449.500 485.434 L 443.500 488.838 439.047 500.592 L 434.594 512.347 430.841 504.163 L 427.089 495.978 421.544 498.697 C 418.378 500.250, 416.003 502.078, 416.008 502.958 C 416.014 504.284, 430.171 535.355, 432.286 538.686 C 432.839 539.557, 434.565 539.199, 438.770 537.344 C 441.921 535.953, 444.635 534.685, 444.799 534.525 C 444.964 534.365, 443.739 531.429, 442.078 527.999 C 439.755 523.205, 439.290 521.327, 440.064 519.881 C 440.617 518.847, 441.495 518, 442.015 518 C 442.535 518, 447.496 519.807, 453.039 522.016 L 463.119 526.031 469.606 522.404 C 473.173 520.409, 475.926 518.277, 475.723 517.668 C 475.519 517.058, 473.586 516.193, 471.426 515.746 C 464.314 514.274, 448 507.816, 448 506.472 C 448 505.754, 448.955 502.991, 450.123 500.333 C 453.424 492.815, 457 483.705, 457 482.810 C 457 481.452, 455.746 481.891, 449.500 485.434 M 242.137 500.111 C 236.521 509.523, 231.830 517.679, 231.713 518.235 C 231.481 519.337, 240.037 524.095, 241.085 523.447 C 241.438 523.229, 244.579 517.871, 248.064 511.540 C 251.549 505.210, 254.702 500.518, 255.071 501.115 C 255.440 501.711, 255.826 506.092, 255.931 510.850 C 256.200 523.141, 257.014 526.281, 260.225 527.410 C 262.607 528.248, 264.044 527.460, 274.595 519.536 C 281.042 514.693, 286.070 511.354, 285.769 512.115 C 285.467 512.877, 283.403 518, 281.182 523.500 C 274.833 539.221, 274.823 538.527, 281.425 540.608 C 284.852 541.688, 287.347 542.010, 287.852 541.437 C 288.306 540.922, 291.294 532.850, 294.492 523.500 C 297.690 514.150, 300.512 505.935, 300.763 505.243 C 301.215 503.997, 291.428 499, 288.535 499 C 287.761 499, 282.775 502.402, 277.456 506.560 C 272.138 510.717, 267.670 513.980, 267.530 513.810 C 267.389 513.639, 266.874 508.100, 266.387 501.500 L 265.500 489.500 259.500 486.278 C 256.200 484.506, 253.241 483.044, 252.924 483.028 C 252.607 483.013, 247.753 490.700, 242.137 500.111 M 375 509.198 C 368.675 510.310, 363.377 511.331, 363.227 511.467 C 362.951 511.715, 366.847 545.456, 367.660 549.867 C 368.072 552.101, 368.428 552.209, 374.027 551.804 C 377.289 551.568, 380.233 551.100, 380.569 550.764 C 380.905 550.428, 380.705 547.103, 380.125 543.375 C 379.545 539.647, 379.175 536.492, 379.303 536.364 C 379.431 536.235, 381.778 535.833, 384.518 535.470 L 389.500 534.810 394.849 541.405 C 397.791 545.032, 400.904 548, 401.767 548 C 402.630 548, 406.186 547.504, 409.668 546.897 C 414.832 545.998, 416 545.445, 416 543.897 C 416 542.838, 415.305 542, 414.426 542 C 413.560 542, 410.212 539.483, 406.987 536.406 L 401.122 530.812 404.561 527.372 C 407.461 524.472, 408 523.228, 408 519.431 C 408 513.741, 405.947 510.596, 400.920 508.585 C 395.812 506.541, 389.235 506.696, 375 509.198 M 320.921 515.755 C 317.995 520.015, 312.090 528.327, 307.800 534.227 C 303.510 540.127, 300 545.136, 300 545.358 C 300 545.843, 308.333 548.001, 310.193 547.998 C 310.912 547.997, 312.850 545.986, 314.500 543.530 C 316.327 540.812, 318.087 539.220, 319 539.461 C 319.825 539.679, 324.204 540.160, 328.731 540.531 L 336.962 541.205 338.622 546.469 L 340.281 551.734 347.348 552.326 C 351.235 552.652, 354.578 552.755, 354.777 552.556 C 354.976 552.357, 354.229 550.013, 353.117 547.347 C 352.005 544.681, 348.552 535.525, 345.445 527 C 342.337 518.475, 339.278 510.993, 338.647 510.373 C 338.016 509.753, 334.967 508.968, 331.871 508.628 L 326.242 508.011 320.921 515.755 M 382.212 516.232 C 377.091 517.008, 376.008 517.492, 376.375 518.842 C 376.623 519.754, 377.115 522.211, 377.468 524.303 L 378.111 528.106 382.805 527.454 C 389.902 526.468, 394.443 523.992, 394.801 520.914 C 395.345 516.233, 391.541 514.818, 382.212 516.232 M 326.194 525 L 322.037 531.500 326.269 532.267 C 328.596 532.688, 331.469 532.913, 332.653 532.767 L 334.806 532.500 332.579 525.500 L 330.351 518.500 326.194 525" stroke="none" fill="#0a0a0a" fill-rule="evenodd"/><path d="M -0 351.501 L -0 703.003 351.750 702.751 L 703.500 702.500 703.751 351.250 L 704.003 -0 352.001 -0 L 0 0 -0 351.501 M 0.494 352 C 0.494 545.325, 0.609 624.412, 0.750 527.750 C 0.891 431.087, 0.891 272.912, 0.750 176.250 C 0.609 79.587, 0.494 158.675, 0.494 352 M 336.440 91.021 C 313.576 92.383, 289.051 97.155, 267.500 104.436 C 218.621 120.950, 174.076 153.830, 141.726 197.274 C 100.180 253.069, 83.185 329.194, 97.137 397 C 108.076 450.160, 130.271 491.417, 168.441 529.541 C 190.918 551.992, 211.671 566.943, 238.500 580.013 C 262.520 591.715, 282.151 597.999, 309.500 602.740 C 322.869 605.058, 327.273 605.349, 350 605.420 C 376.762 605.504, 383.458 604.889, 405.404 600.333 C 456.297 589.766, 509.856 558.588, 543.721 519.816 C 573.987 485.164, 593.018 448.496, 602.973 405.649 C 617.664 342.417, 606.939 272.924, 574.030 218.112 C 543.835 167.820, 498.649 129.560, 444.053 108.058 C 429.380 102.280, 405.943 95.929, 390.500 93.546 C 380.490 92.002, 355.704 89.873, 351 90.154 C 349.625 90.236, 343.073 90.626, 336.440 91.021 M 339 99.623 C 283.279 103.416, 233.215 123.076, 192 157.352 C 167.949 177.353, 145.963 204.554, 130.596 233.319 C 105.743 279.840, 97.160 337.535, 107.658 387.500 C 123.078 460.894, 176.379 527.041, 247.500 561.049 C 319.565 595.507, 402.737 592.525, 472.500 552.980 C 528.561 521.202, 570.700 470.093, 589.319 411.294 C 604.079 364.683, 603.090 315.621, 586.392 266 C 578.869 243.644, 562.537 214.411, 545.751 193.256 C 522.132 163.488, 487.157 136.546, 451.806 120.888 C 429.663 111.080, 403.653 103.919, 379.937 101.100 C 370.036 99.923, 346.870 99.088, 339 99.623 M 324 113.529 C 240.840 124.042, 172.647 172.998, 135.990 248.500 C 123.255 274.730, 116.479 301.980, 114.481 335 C 113.702 347.871, 115.289 366.449, 118.563 382.781 C 136.416 471.856, 210.063 547.681, 298.500 568.040 C 329.039 575.070, 366.472 575.817, 396.971 570.005 C 464.919 557.058, 525.392 512.195, 560.913 448.382 C 572.816 426.997, 581.387 402.166, 586.128 375.333 C 589.071 358.675, 589.311 331.409, 586.671 313.676 C 584.444 298.718, 579.236 278.272, 574.527 266 C 555.389 216.126, 516.010 170.077, 470.316 144.138 C 443.936 129.164, 414.658 118.935, 385.500 114.506 C 370.169 112.178, 338.651 111.677, 324 113.529 M 341 122.120 C 306.695 123.586, 277.645 131.053, 247.698 146.104 C 207.678 166.216, 173.624 198.715, 150.357 239 C 136.123 263.646, 129.131 284.314, 124.548 315.291 C 122.902 326.415, 122.274 353.598, 123.458 362.500 C 129.261 406.159, 142.240 438.383, 167.761 472.500 C 199.974 515.562, 246.002 546.883, 295.500 559.424 C 316.022 564.624, 323.632 565.437, 352 565.457 C 375.409 565.474, 379.958 565.208, 391 563.177 C 414.531 558.850, 431.197 553.387, 451.926 543.207 C 497.756 520.701, 536.381 481.855, 559.021 435.500 C 583.678 385.017, 587.290 330.652, 569.528 277.351 C 550.956 221.616, 506.875 171.498, 453.500 145.431 C 416.865 127.540, 382.208 120.358, 341 122.120 M 335.500 141.543 C 327.800 142.247, 320.488 142.862, 319.250 142.911 C 317.221 142.991, 317 143.503, 317 148.129 L 317 153.258 323.851 152.583 L 330.702 151.908 331.344 158.704 C 331.697 162.442, 331.989 168.025, 331.993 171.110 C 331.997 174.196, 332.286 178.809, 332.636 181.360 L 333.272 186 339.257 186 L 345.243 186 344.520 168.645 L 343.797 151.291 347.024 150.645 C 348.798 150.290, 351.769 150, 353.625 150 C 356.800 150, 357 149.798, 357 146.582 C 357 139.198, 358.171 139.472, 335.500 141.543 M 377.728 144.327 C 361.234 149.458, 357.274 173.942, 371.296 184.100 C 381.794 191.704, 394.826 191.766, 403.143 184.252 C 410.894 177.249, 413.924 166.327, 410.560 157.519 C 406.347 146.486, 390.831 140.251, 377.728 144.327 M 287 150.154 C 280.125 152.380, 274.196 154.494, 273.825 154.851 C 273.454 155.208, 275.816 163.375, 279.076 173 C 282.335 182.625, 285.498 191.999, 286.105 193.832 C 287.389 197.706, 286.380 197.789, 303.872 192.375 L 315.244 188.855 314.706 184.845 C 314.410 182.639, 313.901 180.567, 313.574 180.241 C 313.247 179.914, 309.146 180.796, 304.460 182.201 C 295.132 184.998, 295.108 184.991, 293.666 178.938 C 293.088 176.511, 293.430 176.255, 300.123 174.100 L 307.189 171.824 306.517 168.162 C 306.147 166.148, 305.539 164.182, 305.165 163.793 C 304.791 163.404, 301.417 164.022, 297.667 165.167 C 290.227 167.438, 289.052 167.088, 288.710 162.497 C 288.509 159.789, 288.834 159.574, 296.733 157.192 C 304.678 154.797, 304.944 154.619, 304.344 152.105 C 303.420 148.228, 302.080 145.993, 300.715 146.053 C 300.047 146.082, 293.875 147.927, 287 150.154 M 381.743 154.763 C 378.001 157.082, 375.590 163.668, 376.270 169.706 C 377.623 181.706, 392.024 183.769, 397.057 172.684 C 399.237 167.880, 399.533 162.264, 397.805 158.472 C 395.449 153.301, 387.180 151.391, 381.743 154.763 M 428.591 159.750 C 427.037 162.912, 422.861 171.978, 419.311 179.897 C 414.253 191.179, 413.142 194.485, 414.178 195.182 C 414.905 195.671, 419.761 198.172, 424.969 200.741 C 433.344 204.872, 435.201 205.412, 441.030 205.412 C 446.360 205.412, 448.489 204.903, 452.154 202.755 C 462.017 196.975, 466.598 185.155, 462.644 175.690 C 460.483 170.518, 451.409 163.113, 441.384 158.340 C 436.371 155.953, 432.077 154, 431.843 154 C 431.608 154, 430.145 156.588, 428.591 159.750 M 253.741 163.374 C 251.673 164.645, 249.709 165.958, 249.376 166.291 C 249.043 166.624, 250.421 169.849, 252.439 173.457 C 254.457 177.065, 255.849 180.436, 255.533 180.947 C 254.834 182.077, 244.609 188.003, 243.378 187.992 C 242.895 187.987, 240.948 185.062, 239.052 181.492 C 237.155 177.921, 235.009 175, 234.282 175 C 232.730 175, 225 179.726, 225 180.675 C 225 181.032, 226.187 183.389, 227.637 185.912 C 232.478 194.333, 244.246 214.471, 245.687 216.798 L 247.109 219.096 250.804 216.894 C 257.390 212.970, 257.364 213.097, 252.986 205.979 C 250.794 202.415, 249.001 198.971, 249.001 198.323 C 249 197.126, 258.871 191, 260.801 191 C 261.383 191, 263.561 194.150, 265.640 198 C 267.719 201.850, 269.975 205, 270.653 205 C 271.606 205, 277.614 201.988, 279.842 200.394 C 280.031 200.259, 276.805 193.928, 272.674 186.324 C 268.543 178.721, 263.907 169.912, 262.373 166.750 C 260.839 163.588, 259.115 161.014, 258.542 161.031 C 257.969 161.048, 255.808 162.103, 253.741 163.374 M 433.508 178.983 C 430.479 185.024, 428 190.341, 428 190.798 C 428 192.346, 435.044 195, 439.152 195 C 442.547 195, 443.876 194.359, 447.035 191.201 C 454.063 184.172, 453.008 175.433, 444.532 170.466 C 442.218 169.110, 440.030 168, 439.670 168 C 439.311 168, 436.538 172.943, 433.508 178.983 M 479.315 189.668 C 476.117 193.336, 469.563 200.773, 464.750 206.194 C 459.938 211.616, 456 216.416, 456 216.861 C 456 218.333, 471.939 231.450, 477.130 234.250 C 483.609 237.744, 489.642 237.859, 496.500 234.617 C 510.845 227.835, 514.313 212.855, 504.595 199.654 C 502.628 196.983, 486.700 183, 485.624 183 C 485.352 183, 482.513 186.001, 479.315 189.668 M 204.897 195.004 C 192.540 205.853, 185 212.960, 185 213.759 C 185 214.114, 186.417 215.866, 188.148 217.653 L 191.297 220.901 196.528 216.432 L 201.760 211.962 212.630 224.925 C 218.609 232.054, 223.950 237.901, 224.500 237.917 C 225.829 237.955, 233 231.250, 233 229.968 C 233 229.414, 229.731 225.258, 225.735 220.731 C 221.740 216.204, 216.755 210.475, 214.657 208 L 210.843 203.500 215.864 199 L 220.885 194.500 217.589 190.627 L 214.293 186.754 204.897 195.004 M 480.694 207.132 C 475.915 212.284, 472.004 217.072, 472.003 217.772 C 471.999 219.534, 480.872 225, 483.736 225 C 487.488 225, 493.912 221.192, 496.035 217.710 C 497.112 215.944, 497.994 212.786, 497.996 210.692 C 497.999 207.573, 497.220 206.058, 493.691 202.323 L 489.383 197.763 480.694 207.132 M 331 205.122 C 312.723 207.224, 292.533 213.850, 275.891 223.207 C 263.329 230.271, 243 245.266, 243 247.469 C 243 247.761, 246.560 248, 250.910 248 C 258.570 248, 258.974 247.879, 263.666 244.169 C 281.646 229.958, 304.837 220.065, 328.500 216.513 C 340.088 214.773, 360.932 214.546, 372.766 216.030 C 396.579 219.016, 423.768 229.735, 441.591 243.164 C 446.446 246.823, 447.024 246.998, 454.091 246.960 L 461.500 246.921 456.610 242.421 C 451.103 237.354, 435.784 227.022, 426 221.777 C 400.659 208.191, 362.493 201.500, 331 205.122 M 175.863 247.234 C 142.009 305.200, 139.265 368.793, 168.106 426.977 C 179.524 450.011, 191.600 466.547, 210.142 484.539 L 220.284 494.381 222.647 491.441 L 225.010 488.500 218.634 482.778 C 209.158 474.274, 196.028 458.762, 187.415 445.894 C 156.403 399.562, 148.015 345.331, 163.766 293 C 168.291 277.965, 175.611 261.881, 183.766 249.052 L 187.229 243.604 185.004 241.802 C 183.780 240.811, 182.173 240, 181.433 240 C 180.694 240, 178.187 243.255, 175.863 247.234 M 518.139 242.034 L 515.777 244.001 519.890 250.560 C 532.286 270.331, 543.154 302.081, 546.054 327 C 547.498 339.404, 546.787 363.683, 544.634 375.518 C 537.289 415.887, 519.643 450.121, 491.686 478.242 C 486.359 483.601, 482 488.368, 482 488.837 C 482 489.306, 482.863 490.471, 483.917 491.425 C 486.565 493.821, 487.932 492.915, 498.748 481.603 C 522.847 456.394, 537.994 429.733, 547.665 395.500 C 558.723 356.355, 556.994 318.872, 542.312 279.500 C 537.129 265.602, 523.638 239.966, 521.542 240.033 C 520.969 240.052, 519.437 240.952, 518.139 242.034 M 205.160 263.307 C 204.014 264.688, 203.560 292.689, 204.638 295.500 C 205.123 296.764, 208.345 297, 225.107 297 L 245 297 245 353.346 C 245 384.337, 245.292 413.812, 245.650 418.846 L 246.299 428 263.650 428 L 281 428 281 362 L 281 296 301.481 296 C 321.889 296, 321.964 295.992, 322.518 293.750 C 322.824 292.512, 322.945 284.975, 322.787 277 L 322.500 262.500 264.379 262.242 C 217.155 262.032, 206.052 262.232, 205.160 263.307 M 340.244 344.750 L 340.500 427.500 353.742 427.779 L 366.985 428.058 367.242 366.279 C 367.404 327.536, 367.829 305.992, 368.384 308.500 C 368.870 310.700, 372.378 319.700, 376.179 328.500 C 379.981 337.300, 387.403 354.850, 392.674 367.500 C 397.944 380.150, 402.704 391.063, 403.250 391.750 C 403.919 392.590, 407.315 393, 413.609 393 L 422.973 393 424.602 389.250 C 425.498 387.188, 430.054 376.275, 434.725 365 C 439.397 353.725, 445.270 339.550, 447.777 333.500 C 450.284 327.450, 453.812 318.450, 455.617 313.500 L 458.900 304.500 458.950 366.250 L 459 428 476.918 428 C 486.773 428, 495.490 428.251, 496.289 428.558 C 497.088 428.864, 498.492 428.365, 499.408 427.449 C 500.758 426.100, 501.020 424.138, 500.787 417.141 L 500.500 408.500 495.750 408.195 C 493.137 408.028, 490.895 407.803, 490.766 407.695 C 490.638 407.588, 490.300 374.875, 490.016 335 L 489.500 262.500 464.500 262.500 L 439.500 262.500 434.818 276 C 432.244 283.425, 426.400 300.392, 421.833 313.705 C 417.266 327.018, 413.239 337.368, 412.883 336.705 C 412.528 336.042, 406.575 321.063, 399.655 303.418 C 392.735 285.773, 386.173 269.236, 385.072 266.668 L 383.071 262 361.530 262 L 339.988 262 340.244 344.750 M 195.319 329.700 C 194.868 332.340, 194.531 342.150, 194.568 351.500 C 194.641 369.644, 196.043 378.288, 201.619 394.990 C 213.170 429.590, 248.138 463.397, 288.995 479.465 C 325.858 493.962, 367.407 495.799, 403.500 484.528 C 421.420 478.932, 440.123 469.019, 456 456.701 C 463.440 450.929, 472 442.950, 472 441.788 C 472 441.354, 468.836 441, 464.970 441 L 457.940 441 451.308 446.626 C 405.091 485.833, 338.127 492.406, 279.500 463.488 C 245.825 446.879, 221.485 420.538, 211.095 389.461 C 206.096 374.509, 204.689 363.830, 205.371 346 C 205.697 337.475, 206.085 329.375, 206.232 328 C 206.484 325.653, 206.183 325.482, 201.319 325.200 L 196.138 324.900 195.319 329.700 M 449.500 485.434 L 443.500 488.838 439.047 500.592 L 434.594 512.347 430.841 504.163 L 427.089 495.978 421.544 498.697 C 418.378 500.250, 416.003 502.078, 416.008 502.958 C 416.014 504.284, 430.171 535.355, 432.286 538.686 C 432.839 539.557, 434.565 539.199, 438.770 537.344 C 441.921 535.953, 444.635 534.685, 444.799 534.525 C 444.964 534.365, 443.739 531.429, 442.078 527.999 C 439.755 523.205, 439.290 521.327, 440.064 519.881 C 440.617 518.847, 441.495 518, 442.015 518 C 442.535 518, 447.496 519.807, 453.039 522.016 L 463.119 526.031 469.606 522.404 C 473.173 520.409, 475.926 518.277, 475.723 517.668 C 475.519 517.058, 473.586 516.193, 471.426 515.746 C 464.314 514.274, 448 507.816, 448 506.472 C 448 505.754, 448.955 502.991, 450.123 500.333 C 453.424 492.815, 457 483.705, 457 482.810 C 457 481.452, 455.746 481.891, 449.500 485.434 M 242.137 500.111 C 236.521 509.523, 231.830 517.679, 231.713 518.235 C 231.481 519.337, 240.037 524.095, 241.085 523.447 C 241.438 523.229, 244.579 517.871, 248.064 511.540 C 251.549 505.210, 254.702 500.518, 255.071 501.115 C 255.440 501.711, 255.826 506.092, 255.931 510.850 C 256.200 523.141, 257.014 526.281, 260.225 527.410 C 262.607 528.248, 264.044 527.460, 274.595 519.536 C 281.042 514.693, 286.070 511.354, 285.769 512.115 C 285.467 512.877, 283.403 518, 281.182 523.500 C 274.833 539.221, 274.823 538.527, 281.425 540.608 C 284.852 541.688, 287.347 542.010, 287.852 541.437 C 288.306 540.922, 291.294 532.850, 294.492 523.500 C 297.690 514.150, 300.512 505.935, 300.763 505.243 C 301.215 503.997, 291.428 499, 288.535 499 C 287.761 499, 282.775 502.402, 277.456 506.560 C 272.138 510.717, 267.670 513.980, 267.530 513.810 C 267.389 513.639, 266.874 508.100, 266.387 501.500 L 265.500 489.500 259.500 486.278 C 256.200 484.506, 253.241 483.044, 252.924 483.028 C 252.607 483.013, 247.753 490.700, 242.137 500.111 M 375 509.198 C 368.675 510.310, 363.377 511.331, 363.227 511.467 C 362.951 511.715, 366.847 545.456, 367.660 549.867 C 368.072 552.101, 368.428 552.209, 374.027 551.804 C 377.289 551.568, 380.233 551.100, 380.569 550.764 C 380.905 550.428, 380.705 547.103, 380.125 543.375 C 379.545 539.647, 379.175 536.492, 379.303 536.364 C 379.431 536.235, 381.778 535.833, 384.518 535.470 L 389.500 534.810 394.849 541.405 C 397.791 545.032, 400.904 548, 401.767 548 C 402.630 548, 406.186 547.504, 409.668 546.897 C 414.832 545.998, 416 545.445, 416 543.897 C 416 542.838, 415.305 542, 414.426 542 C 413.560 542, 410.212 539.483, 406.987 536.406 L 401.122 530.812 404.561 527.372 C 407.461 524.472, 408 523.228, 408 519.431 C 408 513.741, 405.947 510.596, 400.920 508.585 C 395.812 506.541, 389.235 506.696, 375 509.198 M 320.921 515.755 C 317.995 520.015, 312.090 528.327, 307.800 534.227 C 303.510 540.127, 300 545.136, 300 545.358 C 300 545.843, 308.333 548.001, 310.193 547.998 C 310.912 547.997, 312.850 545.986, 314.500 543.530 C 316.327 540.812, 318.087 539.220, 319 539.461 C 319.825 539.679, 324.204 540.160, 328.731 540.531 L 336.962 541.205 338.622 546.469 L 340.281 551.734 347.348 552.326 C 351.235 552.652, 354.578 552.755, 354.777 552.556 C 354.976 552.357, 354.229 550.013, 353.117 547.347 C 352.005 544.681, 348.552 535.525, 345.445 527 C 342.337 518.475, 339.278 510.993, 338.647 510.373 C 338.016 509.753, 334.967 508.968, 331.871 508.628 L 326.242 508.011 320.921 515.755 M 382.212 516.232 C 377.091 517.008, 376.008 517.492, 376.375 518.842 C 376.623 519.754, 377.115 522.211, 377.468 524.303 L 378.111 528.106 382.805 527.454 C 389.902 526.468, 394.443 523.992, 394.801 520.914 C 395.345 516.233, 391.541 514.818, 382.212 516.232 M 326.194 525 L 322.037 531.500 326.269 532.267 C 328.596 532.688, 331.469 532.913, 332.653 532.767 L 334.806 532.500 332.579 525.500 L 330.351 518.500 326.194 525" stroke="none" fill="#fafafa" fill-rule="evenodd"/></svg>